<svg width="32" height="32" fill="none" xmlns="http://www.w3.org/2000/svg"><circle cx="16" cy="16" r="14.5" fill="#fff" stroke="#334257" stroke-width="3"/><path d="m20.704 12.083-.823.793a6.222 6.222 0 0 0-1.952-1.343c-.703-.308-1.39-.462-2.06-.462-.834 0-1.629.208-2.385.623a4.487 4.487 0 0 0-1.75 1.695 4.394 4.394 0 0 0-.62 2.252c0 .812.213 1.585.642 2.318a4.633 4.633 0 0 0 1.778 1.724 5.078 5.078 0 0 0 2.487.623c1.094 0 2.019-.313 2.775-.939.757-.626 1.205-1.437 1.345-2.435h-3.39V15.89h4.582c-.01 1.668-.498 2.993-1.467 3.976-.964.978-2.255 1.467-3.874 1.467-1.966 0-3.523-.68-4.67-2.039A5.469 5.469 0 0 1 10 15.663a5.63 5.63 0 0 1 .759-2.854 5.409 5.409 0 0 1 2.082-2.06c.881-.5 1.879-.749 2.992-.749.901 0 1.75.166 2.544.499.795.327 1.571.856 2.328 1.584ZM25.074 12.848c.388.192.666.412.832.66.17.247.254.529.254.844 0 .442-.144.833-.433 1.171-.355.415-.861.622-1.52.622-.635 0-1.117-.181-1.445-.543-.328-.365-.492-.766-.492-1.204 0-.32.085-.608.257-.863.172-.258.459-.487.86-.687a1.623 1.623 0 0 1-.633-.543 1.252 1.252 0 0 1-.211-.696c0-.25.074-.493.223-.73.15-.24.358-.427.62-.563.266-.138.553-.207.86-.207.3 0 .577.07.832.207.255.138.455.326.598.563.146.237.219.486.219.746s-.07.492-.207.695c-.136.203-.34.38-.614.528Zm-.855-2.18a1.13 1.13 0 0 0-.785.281.863.863 0 0 0-.309.664c0 .255.11.487.332.696.224.205.484.308.781.308a1.096 1.096 0 0 0 .934-.523.965.965 0 0 0 .144-.492c0-.232-.093-.446-.28-.641-.188-.195-.46-.293-.817-.293Zm.027 2.469c-.396 0-.728.129-.996.386-.268.256-.402.554-.402.895 0 .21.057.41.172.598.114.187.274.332.48.433.206.102.444.153.715.153.42 0 .752-.124 1-.372.247-.247.37-.536.37-.867 0-.32-.13-.604-.394-.851a1.315 1.315 0 0 0-.945-.375Z" fill="#334257"/></svg>