<svg width="16" height="16" viewBox="0 0 16 16" fill="none" xmlns="http://www.w3.org/2000/svg">
<path fill-rule="evenodd" clip-rule="evenodd" d="M9 16L16 16L16 9L9 9L9 16ZM6 6L1 6L1 0.999999L6 0.999999L6 6ZM7 7L6 7L1 7L7.86805e-07 7L8.74228e-07 6L1.31134e-06 0.999999L1.39876e-06 -1.39876e-06L1 -1.31134e-06L6 -8.74228e-07L7 -7.86805e-07L7 0.999999L7 6L7 7ZM15.5 5L15.5 7L14.5 7L14.5 5C14.5 4.17157 13.8284 3.5 13 3.5L11 3.5L11 5L8 3L11 1L11 2.5L13 2.5C14.3807 2.5 15.5 3.61929 15.5 5ZM0.5 11L0.500001 9L1.5 9L1.5 11C1.5 11.8284 2.17157 12.5 3 12.5L5 12.5L5 11L8 13L5 15L5 13.5L3 13.5C1.61929 13.5 0.5 12.3807 0.5 11Z" fill="#5C8BF0"/>
</svg>
