<svg width="18" height="12" viewBox="0 0 18 12" fill="none" xmlns="http://www.w3.org/2000/svg">
<path fill-rule="evenodd" clip-rule="evenodd" d="M2 1H16C16.3822 1 16.7144 1.21447 16.8827 1.52963C16.8377 1.54591 16.7943 1.56898 16.7539 1.59906L12.7276 4.59906L9 7.37647L5.27242 4.59906L1.2461 1.59906C1.20574 1.56898 1.16232 1.54591 1.11731 1.52963C1.28561 1.21446 1.61776 1 2 1ZM1 2.66275V8.69132L4.23639 5.07418L1 2.66275ZM8.6239e-07 10.0019C0.00101484 11.1056 0.896056 12 2 12H16C17.1039 12 17.999 11.1056 18 10.0019M16.9849 10.1742C16.9025 10.6434 16.4929 11 16 11H2C1.50711 11 1.09751 10.6434 1.01511 10.1741L5.0415 5.67406L8.70125 8.40094L9 8.62353L9.29874 8.40094L12.9585 5.67406L16.9849 10.1742ZM17 8.69133L13.7636 5.07418L17 2.66274V8.69133ZM18 9.99931V2C18 0.895431 17.1046 0 16 0H2C0.895431 0 0 0.895431 0 2V9.99673" fill="#9484F2"/>
</svg>
