<svg width="48" height="48" viewBox="0 0 48 48" fill="none" xmlns="http://www.w3.org/2000/svg">
<rect x="2" y="2" width="44" height="44" rx="22" fill="white" stroke="#6653D9" stroke-width="4"/>
<path d="M30.7363 19.6191C30.7363 20.5397 30.5996 21.3555 30.3262 22.0664C30.0618 22.7682 29.6836 23.3789 29.1914 23.8984C28.6992 24.418 28.1068 24.8828 27.4141 25.293C26.7305 25.7031 25.9557 26.0768 25.0898 26.4141V29.5312H20.2773V24.9238C20.9245 24.7507 21.5078 24.5729 22.0273 24.3906C22.556 24.2083 23.1074 23.9121 23.6816 23.502C24.2194 23.1374 24.6387 22.7135 24.9395 22.2305C25.2493 21.7474 25.4043 21.2005 25.4043 20.5898C25.4043 19.6784 25.1081 19.0312 24.5156 18.6484C23.9323 18.2565 23.1074 18.0605 22.041 18.0605C21.3848 18.0605 20.6419 18.2018 19.8125 18.4844C18.9922 18.7669 18.2402 19.1315 17.5566 19.5781H17.0098V15.4082C17.5931 15.1621 18.4909 14.9069 19.7031 14.6426C20.9154 14.3691 22.1458 14.2324 23.3945 14.2324C25.6458 14.2324 27.4323 14.7292 28.7539 15.7227C30.0755 16.7161 30.7363 18.015 30.7363 19.6191ZM25.4727 35H19.9492V31.3906H25.4727V35Z" fill="#6653D9"/>
</svg>
