<svg xmlns="http://www.w3.org/2000/svg" fill="none" height="10" width="10"><path clip-rule="evenodd" d="M.5 0a.5.5 0 0 0-.5.5v3a.5.5 0 0 0 .5.5h3a.5.5 0 0 0 .5-.5v-3a.5.5 0 0 0-.5-.5zM1 3V1h2v2zM.5 6a.5.5 0 0 0-.5.5v3a.5.5 0 0 0 .5.5h3a.5.5 0 0 0 .5-.5v-3a.5.5 0 0 0-.5-.5zM1 9V7h2v2zM6 .5a.5.5 0 0 1 .5-.5h3a.5.5 0 0 1 .5.5v3a.5.5 0 0 1-.5.5h-3a.5.5 0 0 1-.5-.5zM7 1v2h2V1zm-.5 5a.5.5 0 0 0-.5.5v3a.5.5 0 0 0 .5.5h3a.5.5 0 0 0 .5-.5v-3a.5.5 0 0 0-.5-.5zM7 9V7h2v2z" fill="#6653d9" fill-rule="evenodd"/></svg>