<svg xmlns="http://www.w3.org/2000/svg" fill="none" height="29" width="16"><g fill="#fff"><path d="m1.882 16.434 4.758-14.5h8.47L9.413 12.567H16L3.713 29l3.816-12.566z" opacity=".5"/><path clip-rule="evenodd" d="M4.783.343A.497.497 0 0 1 5.254 0h8.471c.175 0 .337.093.426.244.09.151.094.339.011.493l-5.304 9.896h5.756c.188 0 .36.108.445.277a.503.503 0 0 1-.048.524L2.724 27.867a.494.494 0 0 1-.622.145.501.501 0 0 1-.25-.592l3.62-11.92H.498a.495.495 0 0 1-.403-.207.503.503 0 0 1-.069-.45zm.83.657-4.43 13.5h4.96a.502.502 0 0 1 .475.646l-2.991 9.851 9.992-13.364H8.026a.496.496 0 0 1-.426-.243.503.503 0 0 1-.011-.494L12.893 1z" fill-rule="evenodd"/></g></svg>