<svg width="162" height="24" fill="none" xmlns="http://www.w3.org/2000/svg"><path d="M132.85 15.26V9.14h-1c-.32 0-.48-.13-.48-.37 0-.26.16-.38.49-.38h4c2 0 3 .63 3 1.9 0 .79-.51 1.3-1.55 1.52 1.56.2 2.34.88 2.34 2.02 0 1.45-.97 2.17-2.9 2.17h-4.9c-.32 0-.48-.12-.48-.37s.16-.37.49-.37h1zm.74-3.79h1.98c1.7 0 2.55-.4 2.55-1.23a.92.92 0 00-.43-.8c-.28-.2-.89-.3-1.82-.3h-2.28v2.33zm0 3.8h3.1c1.47 0 2.2-.48 2.2-1.43 0-.46-.18-.85-.55-1.16-.38-.31-1.29-.47-2.73-.47h-2.02v3.05zM150 9.14c-.43 0-.75.06-.96.19-.2.12-.55.49-1.05 1.09a7.08 7.08 0 01-1.4 1.43c.28.07.54.18.78.34.25.15.63.59 1.14 1.32l1.23 1.75h1.04c.41 0 .62.12.62.37s-.21.37-.62.37h-1.04c-.3 0-.5-.08-.6-.23a1.27 1.27 0 00-.08-.14l-1.25-1.84a3.27 3.27 0 00-1.27-1.23 3.93 3.93 0 00-1.59-.28h-.54v2.98h.9c.4 0 .61.12.61.37s-.2.37-.61.37h-2.55c-.4 0-.61-.12-.61-.37s.2-.37.61-.37h.9V9.14h-.9c-.4 0-.61-.13-.61-.37 0-.26.2-.38.61-.38h2.55c.4 0 .61.12.61.38 0 .24-.2.37-.61.37h-.9v2.4h.54c.48 0 .84-.07 1.1-.2a4.2 4.2 0 001-.98 9.92 9.92 0 011.55-1.65c.32-.21.8-.32 1.42-.32.3 0 .5.03.58.1.1.07.15.25.15.52v1.01c0 .36-.13.53-.38.53-.24 0-.36-.15-.36-.46v-.95zM160.56 9.14v6.12h.74c.41 0 .62.12.62.37s-.2.37-.62.37h-2.2c-.41 0-.62-.12-.62-.37s.2-.37.62-.37h.72V9.14h-3.63v4.24c0 1.03-.22 1.77-.66 2.22a2.3 2.3 0 01-1.74.69c-.29 0-.57-.04-.86-.1-.28-.08-.44-.15-.5-.23-.05-.08-.08-.24-.08-.48v-.73c0-.37.14-.55.4-.55.23 0 .34.17.34.5v.73c.27.06.51.1.72.1 1.1 0 1.64-.72 1.64-2.15V9.14h-.97c-.41 0-.61-.13-.61-.37 0-.26.2-.38.61-.38h6.82c.41 0 .62.12.62.38 0 .24-.2.37-.62.37h-.74zM14.14 3.51a4 4 0 015.66 5.66L8.49 20.5a4 4 0 01-5.66-5.66L14.14 3.5z" fill="#111622"/><path fill-rule="evenodd" clip-rule="evenodd" d="M7.07 19.07L18.38 7.76a2 2 0 00-2.82-2.83L4.24 16.24a2 2 0 002.83 2.83zM19.8 3.51a4 4 0 00-5.66 0L2.83 14.83a4 4 0 005.66 5.66l11.3-11.32a4 4 0 000-5.66z" fill="url(#paint0_linear)"/><path d="M34.14 3.51a4 4 0 015.66 5.66L28.49 20.5a4 4 0 01-5.66-5.66L34.14 3.5z" fill="#111622"/><path fill-rule="evenodd" clip-rule="evenodd" d="M27.07 19.07L38.38 7.76a2 2 0 00-2.82-2.83L24.24 16.24a2 2 0 102.83 2.83zM39.8 3.51a4 4 0 00-5.66 0L22.83 14.83a4 4 0 005.66 5.66l11.3-11.32a4 4 0 000-5.66z" fill="url(#paint1_linear)"/><path d="M54.14 3.51a4 4 0 015.66 5.66L48.49 20.5a4 4 0 01-5.66-5.66L54.14 3.5z" fill="#111622"/><path fill-rule="evenodd" clip-rule="evenodd" d="M47.07 19.07L58.38 7.76a2 2 0 00-2.82-2.83L44.24 16.24a2 2 0 102.83 2.83zM59.8 3.51a4 4 0 00-5.66 0L42.83 14.83a4 4 0 005.66 5.66l11.3-11.32a4 4 0 000-5.66z" fill="url(#paint2_linear)"/><path d="M74.14 3.51a4 4 0 015.66 5.66L68.49 20.5a4 4 0 01-5.66-5.66L74.14 3.5z" fill="#111622"/><path fill-rule="evenodd" clip-rule="evenodd" d="M67.07 19.07L78.38 7.76a2 2 0 00-2.82-2.83L64.24 16.24a2 2 0 102.83 2.83zM79.8 3.51a4 4 0 00-5.66 0L62.83 14.83a4 4 0 005.66 5.66l11.3-11.32a4 4 0 000-5.66z" fill="url(#paint3_linear)"/><path d="M120 12a5 5 0 11-10 0 5 5 0 0110 0z" fill="url(#paint4_linear)"/><path fill-rule="evenodd" clip-rule="evenodd" d="M124 12a9 9 0 11-18 0 9 9 0 0118 0zm-9 5a5 5 0 100-10 5 5 0 000 10z" fill="url(#paint5_linear)"/><defs><linearGradient id="paint0_linear" x1="2.83" y1="1" x2="2.83" y2="23" gradientUnits="userSpaceOnUse"><stop stop-color="#1A2133"/><stop offset="1" stop-color="#4D6398"/></linearGradient><linearGradient id="paint1_linear" x1="22.83" y1="1" x2="22.83" y2="23" gradientUnits="userSpaceOnUse"><stop stop-color="#1A2133"/><stop offset="1" stop-color="#4D6398"/></linearGradient><linearGradient id="paint2_linear" x1="42.83" y1="1" x2="42.83" y2="23" gradientUnits="userSpaceOnUse"><stop stop-color="#1A2133"/><stop offset="1" stop-color="#4D6398"/></linearGradient><linearGradient id="paint3_linear" x1="62.83" y1="1" x2="62.83" y2="23" gradientUnits="userSpaceOnUse"><stop stop-color="#1A2133"/><stop offset="1" stop-color="#4D6398"/></linearGradient><linearGradient id="paint4_linear" x1="115" y1="7" x2="115" y2="17" gradientUnits="userSpaceOnUse"><stop stop-color="#99E54D"/><stop offset="1" stop-color="#66B21A"/></linearGradient><linearGradient id="paint5_linear" x1="115" y1="7" x2="115" y2="17" gradientUnits="userSpaceOnUse"><stop stop-color="#1A2133"/><stop offset="1" stop-color="#4D6398"/></linearGradient></defs></svg>